<svg version="1.1" id="Layer_1" xmlns="http://www.w3.org/2000/svg" xmlns:xlink="http://www.w3.org/1999/xlink" x="0px" y="0px"
	 width="100%" viewBox="0 0 752 752" enable-background="new 0 0 752 752" xml:space="preserve">
<path fill="#000000" opacity="0.000000" stroke="none" 
	d="
M331.000000,753.000000 
	C220.666672,753.000000 110.833336,753.000000 1.000000,753.000000 
	C1.000000,502.333344 1.000000,251.666672 1.000000,1.000000 
	C251.666672,1.000000 502.333344,1.000000 753.000000,1.000000 
	C753.000000,251.666672 753.000000,502.333344 753.000000,753.000000 
	C612.500000,753.000000 472.000000,753.000000 331.000000,753.000000 
M208.692123,422.084198 
	C196.149353,428.209808 185.633087,436.663208 176.742722,447.576569 
	C161.073547,466.811279 156.335632,489.189850 159.369995,512.723450 
	C162.701721,538.563293 176.254257,559.118103 198.686401,573.063171 
	C210.999802,580.717773 224.338715,585.470947 239.083679,586.066650 
	C255.314819,586.722351 270.669678,583.657776 284.881836,575.891296 
	C299.555145,567.872742 311.338867,556.758423 319.114288,541.700195 
	C320.410889,539.189148 322.226440,537.846558 325.647491,537.872864 
	C354.473389,538.094910 383.306763,538.294312 412.126068,537.805725 
	C419.938110,537.673340 425.448730,538.853760 427.694031,547.111206 
	C428.132904,548.725220 429.870728,549.943542 430.787689,551.476990 
	C438.960114,565.143860 450.778809,574.954102 464.807983,581.782654 
	C480.603607,589.470825 497.405945,591.811523 515.003906,589.094727 
	C539.528625,585.308594 558.835083,573.051270 572.812073,553.074341 
	C585.052734,535.579041 589.951477,515.911316 587.224731,494.228577 
	C585.708374,482.171082 582.388428,470.927246 576.104248,460.867859 
	C564.076111,441.613831 547.629333,427.678375 525.093933,421.822601 
	C523.480530,421.403351 521.541382,419.242889 521.150085,417.566162 
	C515.611572,393.832123 510.356506,370.032196 504.947510,346.267639 
	C499.681854,323.132782 494.512817,299.973145 488.931946,276.913788 
	C485.003357,260.681488 480.158936,244.669785 476.284271,228.425812 
	C473.416168,216.401733 465.485992,209.058929 454.506226,206.222046 
	C444.804138,203.715271 434.395294,203.321365 424.279846,203.159409 
	C398.958099,202.753998 373.625671,203.047958 348.297760,202.975327 
	C341.028290,202.954483 333.945740,203.105591 326.959290,205.937332 
	C317.377899,209.820801 310.460846,216.675629 307.442871,225.925751 
	C304.858185,233.847992 305.599731,241.864777 310.504852,250.361023 
	C317.671997,262.775452 328.630798,267.110748 340.715607,267.656219 
	C365.659882,268.782135 390.690399,268.015320 415.685333,267.972900 
	C418.104828,267.968781 420.263031,267.894714 420.961304,270.942474 
	C422.921143,279.496887 425.042755,288.014496 426.972290,296.575500 
	C432.190704,319.728424 437.259735,342.915253 442.544891,366.052795 
	C447.490051,387.701996 452.636292,409.305298 457.663605,430.798584 
	C442.032867,441.157104 430.082092,454.245728 422.913910,471.473938 
	C422.444794,472.601440 420.639923,473.851624 419.440460,473.867889 
	C416.018066,473.914276 412.588318,473.084534 409.159882,473.073090 
	C382.832275,472.985291 356.503876,473.065460 330.177216,472.881104 
	C328.324982,472.868103 325.778503,471.633118 324.780884,470.144653 
	C322.468018,466.693817 320.970703,462.705811 319.028931,458.995148 
	C311.671448,444.935455 300.757782,434.143036 287.267334,426.157898 
	C271.570465,416.866699 254.252792,413.139526 236.203568,415.220398 
	C227.148010,416.264404 218.358704,419.617645 208.692123,422.084198 
z"/>
<path fill="#FFFFFF" opacity="1.000000" stroke="none" 
	d="
M209.070557,422.005371 
	C218.358704,419.617645 227.148010,416.264404 236.203568,415.220398 
	C254.252792,413.139526 271.570465,416.866699 287.267334,426.157898 
	C300.757782,434.143036 311.671448,444.935455 319.028931,458.995148 
	C320.970703,462.705811 322.468018,466.693817 324.780884,470.144653 
	C325.778503,471.633118 328.324982,472.868103 330.177216,472.881104 
	C356.503876,473.065460 382.832275,472.985291 409.159882,473.073090 
	C412.588318,473.084534 416.018066,473.914276 419.440460,473.867889 
	C420.639923,473.851624 422.444794,472.601440 422.913910,471.473938 
	C430.082092,454.245728 442.032867,441.157104 457.663605,430.798584 
	C452.636292,409.305298 447.490051,387.701996 442.544891,366.052795 
	C437.259735,342.915253 432.190704,319.728424 426.972290,296.575500 
	C425.042755,288.014496 422.921143,279.496887 420.961304,270.942474 
	C420.263031,267.894714 418.104828,267.968781 415.685333,267.972900 
	C390.690399,268.015320 365.659882,268.782135 340.715607,267.656219 
	C328.630798,267.110748 317.671997,262.775452 310.504852,250.361023 
	C305.599731,241.864777 304.858185,233.847992 307.442871,225.925751 
	C310.460846,216.675629 317.377899,209.820801 326.959290,205.937332 
	C333.945740,203.105591 341.028290,202.954483 348.297760,202.975327 
	C373.625671,203.047958 398.958099,202.753998 424.279846,203.159409 
	C434.395294,203.321365 444.804138,203.715271 454.506226,206.222046 
	C465.485992,209.058929 473.416168,216.401733 476.284271,228.425812 
	C480.158936,244.669785 485.003357,260.681488 488.931946,276.913788 
	C494.512817,299.973145 499.681854,323.132782 504.947510,346.267639 
	C510.356506,370.032196 515.611572,393.832123 521.150085,417.566162 
	C521.541382,419.242889 523.480530,421.403351 525.093933,421.822601 
	C547.629333,427.678375 564.076111,441.613831 576.104248,460.867859 
	C582.388428,470.927246 585.708374,482.171082 587.224731,494.228577 
	C589.951477,515.911316 585.052734,535.579041 572.812073,553.074341 
	C558.835083,573.051270 539.528625,585.308594 515.003906,589.094727 
	C497.405945,591.811523 480.603607,589.470825 464.807983,581.782654 
	C450.778809,574.954102 438.960114,565.143860 430.787689,551.476990 
	C429.870728,549.943542 428.132904,548.725220 427.694031,547.111206 
	C425.448730,538.853760 419.938110,537.673340 412.126068,537.805725 
	C383.306763,538.294312 354.473389,538.094910 325.647491,537.872864 
	C322.226440,537.846558 320.410889,539.189148 319.114288,541.700195 
	C311.338867,556.758423 299.555145,567.872742 284.881836,575.891296 
	C270.669678,583.657776 255.314819,586.722351 239.083679,586.066650 
	C224.338715,585.470947 210.999802,580.717773 198.686401,573.063171 
	C176.254257,559.118103 162.701721,538.563293 159.369995,512.723450 
	C156.335632,489.189850 161.073547,466.811279 176.742722,447.576569 
	C185.633087,436.663208 196.149353,428.209808 209.070557,422.005371 
M213.507690,514.005798 
	C216.481949,522.954956 222.466949,529.001526 230.949951,533.045410 
	C249.426056,541.853149 268.234802,530.572388 274.808594,513.696350 
	C279.412750,501.876678 273.704620,483.002869 263.431671,476.432373 
	C252.122833,469.199402 239.946701,466.953522 227.228378,474.239441 
	C214.260422,481.668365 206.986404,500.077393 213.507690,514.005798 
M496.023865,474.048706 
	C492.176697,475.664551 488.063354,476.839264 484.528473,478.972565 
	C469.246429,488.195160 464.818146,506.607147 472.705750,521.915894 
	C476.687683,529.644409 483.290436,535.321777 491.862213,538.476807 
	C501.879364,542.163818 518.098694,538.558228 524.708801,530.699158 
	C531.431335,522.706299 535.238403,513.745483 534.004883,503.067535 
	C532.909363,493.584808 528.042297,485.795959 520.907104,480.292572 
	C514.198120,475.117920 505.757812,472.898560 496.023865,474.048706 
z"/>
<path fill="#000000" opacity="0.000000" stroke="none" 
	d="
M213.284210,513.665283 
	C206.986404,500.077393 214.260422,481.668365 227.228378,474.239441 
	C239.946701,466.953522 252.122833,469.199402 263.431671,476.432373 
	C273.704620,483.002869 279.412750,501.876678 274.808594,513.696350 
	C268.234802,530.572388 249.426056,541.853149 230.949951,533.045410 
	C222.466949,529.001526 216.481949,522.954956 213.284210,513.665283 
z"/>
<path fill="#000000" opacity="0.000000" stroke="none" 
	d="
M496.471497,474.028015 
	C505.757812,472.898560 514.198120,475.117920 520.907104,480.292572 
	C528.042297,485.795959 532.909363,493.584808 534.004883,503.067535 
	C535.238403,513.745483 531.431335,522.706299 524.708801,530.699158 
	C518.098694,538.558228 501.879364,542.163818 491.862213,538.476807 
	C483.290436,535.321777 476.687683,529.644409 472.705750,521.915894 
	C464.818146,506.607147 469.246429,488.195160 484.528473,478.972565 
	C488.063354,476.839264 492.176697,475.664551 496.471497,474.028015 
z"/>
</svg>